<svg width="25" height="24" viewBox="0 0 25 24" fill="none" xmlns="http://www.w3.org/2000/svg">
<path d="M24.7285 12C24.7285 18.6562 19.3379 24 12.7285 24C6.07227 24 0.728516 18.6562 0.728516 12C0.728516 5.39062 6.07227 0 12.7285 0C19.3379 0 24.7285 5.39062 24.7285 12ZM5.36914 6.79688C4.33789 8.29688 3.72852 10.0781 3.72852 12C3.72852 16.9688 7.71289 21 12.7285 21C14.6504 21 16.4316 20.3906 17.9316 19.3594L5.36914 6.79688ZM21.7285 12C21.7285 7.03125 17.6973 3 12.7285 3C10.7598 3 8.97852 3.65625 7.47852 4.6875L20.041 17.25C21.0723 15.75 21.7285 13.9688 21.7285 12Z" fill="#1BBFCA"/>
</svg>
